<svg xmlns="http://www.w3.org/2000/svg" xmlns:xlink="http://www.w3.org/1999/xlink" width="500" zoomAndPan="magnify" viewBox="0 0 375 374.999991" height="500" preserveAspectRatio="xMidYMid meet" version="1.0"><defs><clipPath id="620d1c5e9a"><path d="M 129.792969 116.035156 L 224 116.035156 L 224 177 L 129.792969 177 Z M 129.792969 116.035156 " clip-rule="nonzero"/></clipPath><clipPath id="609dd816ab"><path d="M 220 223 L 245.292969 223 L 245.292969 249 L 220 249 Z M 220 223 " clip-rule="nonzero"/></clipPath></defs><rect x="-37.5" width="450" fill="#ffffff" y="-37.499999" height="449.999989" fill-opacity="1"/><rect x="-37.5" width="450" fill="#000000" y="-37.499999" height="449.999989" fill-opacity="1"/><path fill="#ff014f" d="M 131.800781 201.425781 L 169.175781 211.449219 L 214.335938 191.277344 C 220.335938 188.597656 223.972656 182.980469 223.972656 176.40625 L 223.972656 176.375 L 205.527344 160.480469 L 139.113281 189.648438 C 134.578125 191.660156 131.800781 195.90625 131.800781 200.851562 Z M 131.800781 201.425781 " fill-opacity="1" fill-rule="evenodd"/><g clip-path="url(#620d1c5e9a)"><path fill="#ffffff" d="M 223.972656 176.339844 L 223.972656 159.648438 C 223.972656 149.882812 216.347656 141.871094 206.613281 141.332031 C 199.238281 140.949219 192.1875 139.0625 185.453125 134.914062 C 173.996094 127.894531 170.929688 116.117188 155.039062 116.117188 C 141.089844 116.117188 129.792969 127.414062 129.792969 141.363281 C 129.792969 155.308594 141.089844 166.605469 155.039062 166.605469 C 165.410156 166.605469 168.472656 160.160156 183.632812 160.320312 C 198.027344 160.511719 211.335938 166.574219 223.972656 176.339844 " fill-opacity="1" fill-rule="evenodd"/></g><path fill="#ffffff" d="M 169.175781 211.449219 L 131.800781 201.425781 L 131.800781 228.140625 Z M 169.175781 211.449219 " fill-opacity="1" fill-rule="evenodd"/><path fill="#ff014f" d="M 169.175781 211.449219 L 131.800781 228.140625 L 131.800781 229.003906 C 131.800781 234.585938 135.410156 239.3125 140.804688 240.777344 L 197.707031 256.386719 C 197.546875 256.257812 197.355469 256.128906 197.199219 256.003906 C 197.101562 255.90625 197.007812 255.84375 196.910156 255.746094 L 196.816406 255.652344 C 196.527344 255.394531 196.273438 255.109375 196.015625 254.789062 L 195.921875 254.695312 L 195.761719 254.503906 L 195.699219 254.40625 L 195.632812 254.3125 L 195.570312 254.214844 L 195.441406 253.992188 L 195.378906 253.894531 L 195.347656 253.832031 L 195.3125 253.769531 L 195.3125 253.738281 L 195.1875 253.546875 L 195.121094 253.449219 L 195.121094 253.417969 L 195.058594 253.289062 C 194.996094 253.160156 194.929688 253.066406 194.898438 252.9375 L 194.867188 252.84375 L 194.867188 252.8125 L 194.804688 252.683594 L 194.773438 252.585938 L 194.773438 252.554688 L 194.707031 252.429688 L 194.675781 252.332031 L 194.644531 252.238281 L 194.644531 252.203125 L 194.613281 252.078125 L 194.582031 252.011719 L 194.546875 251.949219 L 194.515625 251.820312 L 194.484375 251.726562 L 194.484375 251.695312 L 194.453125 251.597656 L 194.453125 251.566406 L 194.421875 251.4375 L 194.421875 251.375 L 194.390625 251.3125 L 194.355469 251.183594 L 194.324219 251.054688 L 194.292969 250.960938 L 194.292969 250.929688 L 194.261719 250.800781 L 194.261719 250.703125 L 194.230469 250.511719 L 194.199219 250.289062 L 194.199219 248.4375 L 194.230469 248.246094 L 194.230469 248.214844 L 194.261719 248.054688 L 194.261719 247.960938 L 194.292969 247.800781 L 194.292969 247.769531 L 194.324219 247.609375 L 194.324219 247.578125 L 194.355469 247.386719 L 194.390625 247.257812 L 194.390625 247.226562 L 194.421875 247.128906 L 194.421875 247.097656 L 194.453125 246.96875 L 194.453125 246.9375 L 194.484375 246.777344 L 194.546875 246.585938 L 194.582031 246.460938 L 194.613281 246.363281 L 194.613281 246.332031 L 194.675781 246.203125 L 194.675781 246.140625 L 194.738281 245.980469 L 194.738281 245.949219 L 194.804688 245.820312 L 194.835938 245.757812 L 194.835938 245.726562 L 194.898438 245.597656 L 194.929688 245.566406 L 194.964844 245.503906 L 195.089844 245.183594 L 195.15625 245.085938 L 195.21875 244.960938 L 195.21875 244.929688 L 195.25 244.863281 L 195.3125 244.734375 L 195.347656 244.703125 L 195.441406 244.542969 L 195.539062 244.417969 L 195.570312 244.386719 L 195.632812 244.289062 L 195.664062 244.257812 L 195.730469 244.195312 L 195.761719 244.160156 L 195.855469 244.035156 L 195.855469 244.003906 L 195.953125 243.875 L 195.953125 243.84375 L 196.046875 243.714844 L 196.082031 243.652344 L 196.144531 243.585938 L 196.207031 243.492188 L 196.238281 243.460938 L 196.335938 243.332031 L 196.816406 242.851562 L 196.972656 242.726562 L 197.101562 242.628906 L 197.132812 242.597656 L 197.230469 242.535156 L 197.261719 242.503906 L 197.355469 242.4375 L 197.484375 242.34375 L 197.613281 242.246094 L 197.738281 242.121094 L 197.835938 242.054688 L 197.867188 242.023438 L 197.964844 241.960938 L 197.996094 241.925781 L 198.121094 241.832031 L 198.25 241.734375 L 198.28125 241.703125 L 198.378906 241.640625 L 198.410156 241.640625 L 198.507812 241.578125 L 198.539062 241.542969 L 198.664062 241.480469 L 198.824219 241.386719 L 198.953125 241.320312 L 199.082031 241.257812 L 199.113281 241.226562 L 199.238281 241.160156 L 199.367188 241.097656 L 199.527344 241.035156 L 199.558594 241.035156 L 199.6875 240.96875 L 199.71875 240.96875 L 199.816406 240.9375 L 199.847656 240.9375 L 199.972656 240.90625 L 200.007812 240.90625 C 200.324219 240.777344 200.675781 240.683594 201.027344 240.617188 C 205.207031 239.152344 208.175781 235.195312 208.175781 230.5 C 208.175781 225.84375 205.175781 221.851562 201.027344 220.382812 C 200.582031 220.226562 200.101562 220.097656 199.621094 220 Z M 169.175781 211.449219 " fill-opacity="1" fill-rule="evenodd"/><path fill="#ffffff" d="M 218.164062 251.375 C 218.164062 255.523438 214.816406 258.875 210.664062 258.875 C 206.515625 258.875 203.164062 255.523438 203.164062 251.375 C 203.164062 247.226562 206.515625 243.875 210.664062 243.875 C 214.816406 243.875 218.164062 247.226562 218.164062 251.375 " fill-opacity="1" fill-rule="evenodd"/><g clip-path="url(#609dd816ab)"><path fill="#ff014f" d="M 245.199219 236.3125 C 245.199219 243.171875 239.644531 248.757812 232.75 248.757812 C 225.890625 248.757812 220.304688 243.203125 220.304688 236.3125 C 220.304688 229.449219 225.859375 223.863281 232.75 223.863281 C 239.613281 223.894531 245.199219 229.449219 245.199219 236.3125 " fill-opacity="1" fill-rule="evenodd"/></g></svg>